<svg xmlns="http://www.w3.org/2000/svg" width="1920" height="1080"><path d="M-284,-322L612,-323L1153,-327Z" fill="#ff7a79" stroke="#ff7a79" stroke-width="1.51"/><path d="M1393,1384L960,1371L1516,1413Z" fill="#fb9b92" stroke="#fb9b92" stroke-width="1.51"/><path d="M960,1371L730,1405L1516,1413Z" fill="#fd9e95" stroke="#fd9e95" stroke-width="1.51"/><path d="M1737,-271L1982,-196L2132,-226Z" fill="#ff928e" stroke="#ff928e" stroke-width="1.51"/><path d="M2006,1337L1827,1406L2161,1329Z" fill="#ffc1bc" stroke="#ffc1bc" stroke-width="1.51"/><path d="M2152,940L2094,1135L2161,1329Z" fill="#fea7a1" stroke="#fea7a1" stroke-width="1.51"/><path d="M2152,940L2161,1329L2184,730Z" fill="#fd9e97" stroke="#fd9e97" stroke-width="1.51"/><path d="M2184,730L2161,1329L2201,593Z" fill="#fb9d95" stroke="#fb9d95" stroke-width="1.51"/><path d="M2191,356L1927,570L2201,593Z" fill="#fe948d" stroke="#fe948d" stroke-width="1.51"/><path d="M2190,-46L1987,113L2238,153Z" fill="#ffb3b0" stroke="#ffb3b0" stroke-width="1.51"/><path d="M1953,272L2191,356L2238,153Z" fill="#ffa49e" stroke="#ffa49e" stroke-width="1.51"/><path d="M1987,113L1953,272L2238,153Z" fill="#ffa09c" stroke="#ffa09c" stroke-width="1.51"/><path d="M2201,593L2161,1329L2238,153Z" fill="#fb9c93" stroke="#fb9c93" stroke-width="1.51"/><path d="M2191,356L2201,593L2238,153Z" fill="#ffa8a1" stroke="#ffa8a1" stroke-width="1.51"/><path d="M1933,865L2152,940L2184,730Z" fill="#f98e87" stroke="#f98e87" stroke-width="1.51"/><path d="M2132,-226L1959,-124L2190,-46Z" fill="#ffaca8" stroke="#ffaca8" stroke-width="1.51"/><path d="M1953,272L1927,570L2191,356Z" fill="#ff8b85" stroke="#ff8b85" stroke-width="1.51"/><path d="M1927,570L2184,730L2201,593Z" fill="#fa9088" stroke="#fa9088" stroke-width="1.51"/><path d="M2094,1135L2006,1337L2161,1329Z" fill="#ffbbb5" stroke="#ffbbb5" stroke-width="1.51"/><path d="M1959,-124L1987,113L2190,-46Z" fill="#ffaba8" stroke="#ffaba8" stroke-width="1.51"/><path d="M1982,-196L1959,-124L2132,-226Z" fill="#ff9f9c" stroke="#ff9f9c" stroke-width="1.51"/><path d="M1885,757L1933,865L2184,730Z" fill="#f67f79" stroke="#f67f79" stroke-width="1.51"/><path d="M1927,570L1885,757L2184,730Z" fill="#f67e77" stroke="#f67e77" stroke-width="1.51"/><path d="M1970,1176L2006,1337L2094,1135Z" fill="#ffa8a1" stroke="#ffa8a1" stroke-width="1.51"/><path d="M1933,865L2094,1135L2152,940Z" fill="#fa8e88" stroke="#fa8e88" stroke-width="1.51"/><path d="M1933,865L1970,1176L2094,1135Z" fill="#f98782" stroke="#f98782" stroke-width="1.51"/><path d="M1933,865L1830,940L1970,1176Z" fill="#f67873" stroke="#f67873" stroke-width="1.51"/><path d="M1408,-309L1505,-269L1737,-271Z" fill="#f66b6a" stroke="#f66b6a" stroke-width="1.51"/><path d="M1768,474L1927,570L1953,272Z" fill="#fb7570" stroke="#fb7570" stroke-width="1.51"/><path d="M1768,353L1768,474L1953,272Z" fill="#fc6f6c" stroke="#fc6f6c" stroke-width="1.51"/><path d="M1830,940L1796,1096L1970,1176Z" fill="#f6736f" stroke="#f6736f" stroke-width="1.51"/><path d="M1959,-124L1799,-58L1987,113Z" fill="#fe9894" stroke="#fe9894" stroke-width="1.51"/><path d="M1970,1176L1827,1406L2006,1337Z" fill="#ffada8" stroke="#ffada8" stroke-width="1.51"/><path d="M1796,1096L1827,1406L1970,1176Z" fill="#fc938d" stroke="#fc938d" stroke-width="1.51"/><path d="M1740,178L1953,272L1987,113Z" fill="#fd8783" stroke="#fd8783" stroke-width="1.51"/><path d="M1799,-58L1740,178L1987,113Z" fill="#fc8885" stroke="#fc8885" stroke-width="1.51"/><path d="M1737,-271L1959,-124L1982,-196Z" fill="#fd8b88" stroke="#fd8b88" stroke-width="1.51"/><path d="M612,-323L754,-298L1153,-327Z" fill="#fc6b6a" stroke="#fc6b6a" stroke-width="1.51"/><path d="M1737,-271L1799,-58L1959,-124Z" fill="#fc8582" stroke="#fc8582" stroke-width="1.51"/><path d="M1744,681L1885,757L1927,570Z" fill="#f26864" stroke="#f26864" stroke-width="1.51"/><path d="M1740,178L1768,353L1953,272Z" fill="#fb7672" stroke="#fb7672" stroke-width="1.51"/><path d="M1885,757L1830,940L1933,865Z" fill="#f36f6b" stroke="#f36f6b" stroke-width="1.51"/><path d="M1768,474L1744,681L1927,570Z" fill="#f46562" stroke="#f46562" stroke-width="1.51"/><path d="M1744,681L1830,940L1885,757Z" fill="#f06460" stroke="#f06460" stroke-width="1.51"/><path d="M754,-298L926,-290L1153,-327Z" fill="#f96968" stroke="#f96968" stroke-width="1.51"/><path d="M1491,1143L1516,1413L1796,1096Z" fill="#f77c77" stroke="#f77c77" stroke-width="1.51"/><path d="M1555,-3L1740,178L1799,-58Z" fill="#f87b79" stroke="#f87b79" stroke-width="1.51"/><path d="M1796,1096L1516,1413L1827,1406Z" fill="#fa918b" stroke="#fa918b" stroke-width="1.51"/><path d="M1569,864L1796,1096L1830,940Z" fill="#f05c5b" stroke="#f05c5b" stroke-width="1.51"/><path d="M1744,681L1569,864L1830,940Z" fill="#ed5756" stroke="#ed5756" stroke-width="1.51"/><path d="M1740,178L1623,351L1768,353Z" fill="#f76665" stroke="#f76665" stroke-width="1.51"/><path d="M1548,619L1744,681L1768,474Z" fill="#f05757" stroke="#f05757" stroke-width="1.51"/><path d="M1569,864L1491,1143L1796,1096Z" fill="#f05b5b" stroke="#f05b5b" stroke-width="1.51"/><path d="M1737,-271L1555,-3L1799,-58Z" fill="#f87877" stroke="#f87877" stroke-width="1.51"/><path d="M1505,-269L1555,-3L1737,-271Z" fill="#f77271" stroke="#f77271" stroke-width="1.51"/><path d="M1623,351L1548,619L1768,474Z" fill="#f35a5a" stroke="#f35a5a" stroke-width="1.51"/><path d="M1768,353L1623,351L1768,474Z" fill="#f75f5f" stroke="#f75f5f" stroke-width="1.51"/><path d="M1493,211L1623,351L1740,178Z" fill="#f76866" stroke="#f76866" stroke-width="1.51"/><path d="M1555,-3L1493,211L1740,178Z" fill="#f77270" stroke="#f77270" stroke-width="1.51"/><path d="M1505,749L1569,864L1744,681Z" fill="#eb5252" stroke="#eb5252" stroke-width="1.51"/><path d="M1548,619L1505,749L1744,681Z" fill="#ec5252" stroke="#ec5252" stroke-width="1.51"/><path d="M1231,1331L960,1371L1393,1384Z" fill="#f9948b" stroke="#f9948b" stroke-width="1.51"/><path d="M1349,385L1381,588L1548,619Z" fill="#ee5353" stroke="#ee5353" stroke-width="1.51"/><path d="M1505,-269L1390,-53L1555,-3Z" fill="#f67472" stroke="#f67472" stroke-width="1.51"/><path d="M1434,68L1493,211L1555,-3Z" fill="#f67370" stroke="#f67370" stroke-width="1.51"/><path d="M1403,895L1491,1143L1569,864Z" fill="#ed5656" stroke="#ed5656" stroke-width="1.51"/><path d="M1349,385L1548,619L1623,351Z" fill="#f25858" stroke="#f25858" stroke-width="1.51"/><path d="M1493,211L1349,385L1623,351Z" fill="#f65f5e" stroke="#f65f5e" stroke-width="1.51"/><path d="M1396,1163L1393,1384L1491,1143Z" fill="#f67b75" stroke="#f67b75" stroke-width="1.51"/><path d="M1491,1143L1393,1384L1516,1413Z" fill="#f98e87" stroke="#f98e87" stroke-width="1.51"/><path d="M1505,749L1403,895L1569,864Z" fill="#eb5251" stroke="#eb5251" stroke-width="1.51"/><path d="M1428,729L1505,749L1548,619Z" fill="#ea4f4e" stroke="#ea4f4e" stroke-width="1.51"/><path d="M1390,-53L1434,68L1555,-3Z" fill="#f67977" stroke="#f67977" stroke-width="1.51"/><path d="M1403,895L1396,1163L1491,1143Z" fill="#ee5857" stroke="#ee5857" stroke-width="1.51"/><path d="M1381,588L1428,729L1548,619Z" fill="#eb504f" stroke="#eb504f" stroke-width="1.51"/><path d="M1408,-309L1390,-53L1505,-269Z" fill="#f66d6b" stroke="#f66d6b" stroke-width="1.51"/><path d="M1428,729L1403,895L1505,749Z" fill="#ea504f" stroke="#ea504f" stroke-width="1.51"/><path d="M1177,268L1349,385L1493,211Z" fill="#f45e5d" stroke="#f45e5d" stroke-width="1.51"/><path d="M1434,68L1165,195L1493,211Z" fill="#f56a68" stroke="#f56a68" stroke-width="1.51"/><path d="M1165,195L1177,268L1493,211Z" fill="#f36361" stroke="#f36361" stroke-width="1.51"/><path d="M1231,1331L1393,1384L1396,1163Z" fill="#f7887f" stroke="#f7887f" stroke-width="1.51"/><path d="M1191,1086L1396,1163L1403,895Z" fill="#ec5555" stroke="#ec5555" stroke-width="1.51"/><path d="M1128,-101L1390,-53L1408,-309Z" fill="#f46d6b" stroke="#f46d6b" stroke-width="1.51"/><path d="M1153,-327L1128,-101L1408,-309Z" fill="#f36664" stroke="#f36664" stroke-width="1.51"/><path d="M1234,813L1403,895L1428,729Z" fill="#e94e4e" stroke="#e94e4e" stroke-width="1.51"/><path d="M1390,-53L1165,195L1434,68Z" fill="#f5716e" stroke="#f5716e" stroke-width="1.51"/><path d="M1381,588L1234,813L1428,729Z" fill="#e84c4b" stroke="#e84c4b" stroke-width="1.51"/><path d="M1349,385L1150,565L1381,588Z" fill="#ee5150" stroke="#ee5150" stroke-width="1.51"/><path d="M1128,-101L1165,195L1390,-53Z" fill="#f47470" stroke="#f47470" stroke-width="1.51"/><path d="M1234,813L1191,1086L1403,895Z" fill="#ea514f" stroke="#ea514f" stroke-width="1.51"/><path d="M1150,565L1234,813L1381,588Z" fill="#e84c4b" stroke="#e84c4b" stroke-width="1.51"/><path d="M1191,1086L1231,1331L1396,1163Z" fill="#f3706a" stroke="#f3706a" stroke-width="1.51"/><path d="M1122,887L1191,1086L1234,813Z" fill="#ea504f" stroke="#ea504f" stroke-width="1.51"/><path d="M1177,268L1150,565L1349,385Z" fill="#f15353" stroke="#f15353" stroke-width="1.51"/><path d="M1006,377L1150,565L1177,268Z" fill="#f45655" stroke="#f45655" stroke-width="1.51"/><path d="M1191,1086L968,1088L1231,1331Z" fill="#f36b67" stroke="#f36b67" stroke-width="1.51"/><path d="M968,1088L960,1371L1231,1331Z" fill="#f9827b" stroke="#f9827b" stroke-width="1.51"/><path d="M1150,565L970,692L1234,813Z" fill="#ea4c4b" stroke="#ea4c4b" stroke-width="1.51"/><path d="M970,692L1122,887L1234,813Z" fill="#e94d4d" stroke="#e94d4d" stroke-width="1.51"/><path d="M974,-132L931,206L1128,-101Z" fill="#f97976" stroke="#f97976" stroke-width="1.51"/><path d="M974,-132L1128,-101L1153,-327Z" fill="#f66d6a" stroke="#f66d6a" stroke-width="1.51"/><path d="M1128,-101L931,206L1165,195Z" fill="#f7706d" stroke="#f7706d" stroke-width="1.51"/><path d="M1122,887L968,1088L1191,1086Z" fill="#ee5554" stroke="#ee5554" stroke-width="1.51"/><path d="M957,921L968,1088L1122,887Z" fill="#ef5555" stroke="#ef5555" stroke-width="1.51"/><path d="M926,-290L974,-132L1153,-327Z" fill="#f86b69" stroke="#f86b69" stroke-width="1.51"/><path d="M1165,195L931,206L1177,268Z" fill="#f66462" stroke="#f66462" stroke-width="1.51"/><path d="M931,206L1006,377L1177,268Z" fill="#f7605f" stroke="#f7605f" stroke-width="1.51"/><path d="M-284,-322L163,-217L612,-323Z" fill="#ff8d8c" stroke="#ff8d8c" stroke-width="1.51"/><path d="M1006,377L921,497L1150,565Z" fill="#f35555" stroke="#f35555" stroke-width="1.51"/><path d="M921,497L970,692L1150,565Z" fill="#ef5252" stroke="#ef5252" stroke-width="1.51"/><path d="M970,692L957,921L1122,887Z" fill="#ed5150" stroke="#ed5150" stroke-width="1.51"/><path d="M757,1177L960,1371L968,1088Z" fill="#fb7a75" stroke="#fb7a75" stroke-width="1.51"/><path d="M750,806L957,921L970,692Z" fill="#ef5352" stroke="#ef5352" stroke-width="1.51"/><path d="M789,-45L931,206L974,-132Z" fill="#fb7c78" stroke="#fb7c78" stroke-width="1.51"/><path d="M695,372L921,497L1006,377Z" fill="#f95b5b" stroke="#f95b5b" stroke-width="1.51"/><path d="M931,206L767,211L1006,377Z" fill="#fa6563" stroke="#fa6563" stroke-width="1.51"/><path d="M767,211L695,372L1006,377Z" fill="#fc6261" stroke="#fc6261" stroke-width="1.51"/><path d="M754,-298L789,-45L926,-290Z" fill="#fd7170" stroke="#fd7170" stroke-width="1.51"/><path d="M789,-45L767,211L931,206Z" fill="#fd7471" stroke="#fd7471" stroke-width="1.51"/><path d="M757,1177L730,1405L960,1371Z" fill="#ff938c" stroke="#ff938c" stroke-width="1.51"/><path d="M957,921L688,988L968,1088Z" fill="#f35a5a" stroke="#f35a5a" stroke-width="1.51"/><path d="M688,988L757,1177L968,1088Z" fill="#f65f5f" stroke="#f65f5f" stroke-width="1.51"/><path d="M921,497L749,528L970,692Z" fill="#f35555" stroke="#f35555" stroke-width="1.51"/><path d="M926,-290L789,-45L974,-132Z" fill="#fb7371" stroke="#fb7371" stroke-width="1.51"/><path d="M749,528L750,806L970,692Z" fill="#f15353" stroke="#f15353" stroke-width="1.51"/><path d="M750,806L688,988L957,921Z" fill="#f35858" stroke="#f35858" stroke-width="1.51"/><path d="M695,372L749,528L921,497Z" fill="#fa5c5b" stroke="#fa5c5b" stroke-width="1.51"/><path d="M216,1358L27,1375L387,1392Z" fill="#ffbbb8" stroke="#ffbbb8" stroke-width="1.51"/><path d="M549,595L615,746L749,528Z" fill="#f65c5b" stroke="#f65c5b" stroke-width="1.51"/><path d="M749,528L615,746L750,806Z" fill="#f45655" stroke="#f45655" stroke-width="1.51"/><path d="M631,1208L730,1405L757,1177Z" fill="#ff8a84" stroke="#ff8a84" stroke-width="1.51"/><path d="M754,-298L612,-323L789,-45Z" fill="#ff7372" stroke="#ff7372" stroke-width="1.51"/><path d="M612,-323L523,-5L789,-45Z" fill="#ff7d7b" stroke="#ff7d7b" stroke-width="1.51"/><path d="M523,-5L558,85L789,-45Z" fill="#ff8482" stroke="#ff8482" stroke-width="1.51"/><path d="M558,85L767,211L789,-45Z" fill="#ff7a78" stroke="#ff7a78" stroke-width="1.51"/><path d="M631,1208L567,1294L730,1405Z" fill="#ff958f" stroke="#ff958f" stroke-width="1.51"/><path d="M615,746L688,988L750,806Z" fill="#f45a59" stroke="#f45a59" stroke-width="1.51"/><path d="M688,988L631,1208L757,1177Z" fill="#fb6b69" stroke="#fb6b69" stroke-width="1.51"/><path d="M548,364L695,372L767,211Z" fill="#ff6766" stroke="#ff6766" stroke-width="1.51"/><path d="M558,85L548,364L767,211Z" fill="#ff7370" stroke="#ff7370" stroke-width="1.51"/><path d="M695,372L549,595L749,528Z" fill="#fa5f5e" stroke="#fa5f5e" stroke-width="1.51"/><path d="M615,746L489,966L688,988Z" fill="#f66160" stroke="#f66160" stroke-width="1.51"/><path d="M548,364L549,595L695,372Z" fill="#fc6564" stroke="#fc6564" stroke-width="1.51"/><path d="M567,1294L387,1392L730,1405Z" fill="#ffa6a1" stroke="#ffa6a1" stroke-width="1.51"/><path d="M373,-181L523,-5L612,-323Z" fill="#ff8280" stroke="#ff8280" stroke-width="1.51"/><path d="M489,966L631,1208L688,988Z" fill="#f86564" stroke="#f86564" stroke-width="1.51"/><path d="M489,966L422,1160L631,1208Z" fill="#fa7370" stroke="#fa7370" stroke-width="1.51"/><path d="M409,74L548,364L558,85Z" fill="#ff7d7b" stroke="#ff7d7b" stroke-width="1.51"/><path d="M163,-217L373,-181L612,-323Z" fill="#ff8583" stroke="#ff8583" stroke-width="1.51"/><path d="M422,1160L567,1294L631,1208Z" fill="#ff8a85" stroke="#ff8a85" stroke-width="1.51"/><path d="M548,364L352,504L549,595Z" fill="#fb6b69" stroke="#fb6b69" stroke-width="1.51"/><path d="M357,928L489,966L615,746Z" fill="#f56865" stroke="#f56865" stroke-width="1.51"/><path d="M328,684L357,928L615,746Z" fill="#f46865" stroke="#f46865" stroke-width="1.51"/><path d="M549,595L328,684L615,746Z" fill="#f46361" stroke="#f46361" stroke-width="1.51"/><path d="M373,-181L350,-110L523,-5Z" fill="#ff8b89" stroke="#ff8b89" stroke-width="1.51"/><path d="M409,74L294,371L548,364Z" fill="#ff7a78" stroke="#ff7a78" stroke-width="1.51"/><path d="M422,1160L387,1392L567,1294Z" fill="#ff9b96" stroke="#ff9b96" stroke-width="1.51"/><path d="M523,-5L409,74L558,85Z" fill="#ff8886" stroke="#ff8886" stroke-width="1.51"/><path d="M294,371L352,504L548,364Z" fill="#fd7270" stroke="#fd7270" stroke-width="1.51"/><path d="M352,504L328,684L549,595Z" fill="#f86c69" stroke="#f86c69" stroke-width="1.51"/><path d="M350,-110L409,74L523,-5Z" fill="#ff8f8d" stroke="#ff8f8d" stroke-width="1.51"/><path d="M357,928L422,1160L489,966Z" fill="#f7706d" stroke="#f7706d" stroke-width="1.51"/><path d="M328,684L207,874L357,928Z" fill="#f5716e" stroke="#f5716e" stroke-width="1.51"/><path d="M350,-110L231,73L409,74Z" fill="#ff9493" stroke="#ff9493" stroke-width="1.51"/><path d="M231,73L294,371L409,74Z" fill="#ff8986" stroke="#ff8986" stroke-width="1.51"/><path d="M357,928L89,1202L422,1160Z" fill="#f97c7a" stroke="#f97c7a" stroke-width="1.51"/><path d="M89,1202L216,1358L422,1160Z" fill="#ff9e9a" stroke="#ff9e9a" stroke-width="1.51"/><path d="M216,1358L387,1392L422,1160Z" fill="#ffa6a2" stroke="#ffa6a2" stroke-width="1.51"/><path d="M207,874L89,1202L357,928Z" fill="#f87b79" stroke="#f87b79" stroke-width="1.51"/><path d="M177,-24L231,73L350,-110Z" fill="#ff9897" stroke="#ff9897" stroke-width="1.51"/><path d="M231,73L188,378L294,371Z" fill="#ff8582" stroke="#ff8582" stroke-width="1.51"/><path d="M201,687L207,874L328,684Z" fill="#f4726f" stroke="#f4726f" stroke-width="1.51"/><path d="M201,687L328,684L352,504Z" fill="#f7726f" stroke="#f7726f" stroke-width="1.51"/><path d="M211,462L201,687L352,504Z" fill="#fa7673" stroke="#fa7673" stroke-width="1.51"/><path d="M163,-217L350,-110L373,-181Z" fill="#ff8e8c" stroke="#ff8e8c" stroke-width="1.51"/><path d="M294,371L211,462L352,504Z" fill="#fd7875" stroke="#fd7875" stroke-width="1.51"/><path d="M163,-217L177,-24L350,-110Z" fill="#ff9493" stroke="#ff9493" stroke-width="1.51"/><path d="M-284,-322L-120,-194L163,-217Z" fill="#ff8685" stroke="#ff8685" stroke-width="1.51"/><path d="M188,378L211,462L294,371Z" fill="#ff7c7a" stroke="#ff7c7a" stroke-width="1.51"/><path d="M-118,174L-95,316L188,378Z" fill="#ff7f7d" stroke="#ff7f7d" stroke-width="1.51"/><path d="M-69,1017L89,1202L207,874Z" fill="#f87978" stroke="#f87978" stroke-width="1.51"/><path d="M-15,502L201,687L211,462Z" fill="#fa7876" stroke="#fa7876" stroke-width="1.51"/><path d="M-118,174L188,378L231,73Z" fill="#ff8a88" stroke="#ff8a88" stroke-width="1.51"/><path d="M177,-24L-118,174L231,73Z" fill="#ff9493" stroke="#ff9493" stroke-width="1.51"/><path d="M201,687L-116,665L207,874Z" fill="#f5726f" stroke="#f5726f" stroke-width="1.51"/><path d="M89,1202L27,1375L216,1358Z" fill="#ffadaa" stroke="#ffadaa" stroke-width="1.51"/><path d="M163,-217L-48,-136L177,-24Z" fill="#ff9493" stroke="#ff9493" stroke-width="1.51"/><path d="M-116,665L-69,1017L207,874Z" fill="#f5726f" stroke="#f5726f" stroke-width="1.51"/><path d="M188,378L-15,502L211,462Z" fill="#fd7c79" stroke="#fd7c79" stroke-width="1.51"/><path d="M-15,502L-116,665L201,687Z" fill="#f7726f" stroke="#f7726f" stroke-width="1.51"/><path d="M-48,-136L-118,174L177,-24Z" fill="#ff9695" stroke="#ff9695" stroke-width="1.51"/><path d="M-95,316L-15,502L188,378Z" fill="#fe7977" stroke="#fe7977" stroke-width="1.51"/><path d="M-120,-194L-48,-136L163,-217Z" fill="#ff8c8c" stroke="#ff8c8c" stroke-width="1.51"/><path d="M-85,1142L27,1375L89,1202Z" fill="#ff9b97" stroke="#ff9b97" stroke-width="1.51"/><path d="M-69,1017L-85,1142L89,1202Z" fill="#fb807e" stroke="#fb807e" stroke-width="1.51"/><path d="M-116,665L-292,818L-69,1017Z" fill="#f56a69" stroke="#f56a69" stroke-width="1.51"/><path d="M-292,818L-277,942L-69,1017Z" fill="#f66b6a" stroke="#f66b6a" stroke-width="1.51"/><path d="M-285,1L-118,174L-48,-136Z" fill="#ff908f" stroke="#ff908f" stroke-width="1.51"/><path d="M-85,1142L-173,1276L27,1375Z" fill="#ff9d99" stroke="#ff9d99" stroke-width="1.51"/><path d="M-95,316L-204,464L-15,502Z" fill="#fd7371" stroke="#fd7371" stroke-width="1.51"/><path d="M-204,464L-116,665L-15,502Z" fill="#f96f6d" stroke="#f96f6d" stroke-width="1.51"/><path d="M-120,-194L-285,1L-48,-136Z" fill="#ff8b8a" stroke="#ff8b8a" stroke-width="1.51"/><path d="M-253,1173L-85,1142L-69,1017Z" fill="#fa7977" stroke="#fa7977" stroke-width="1.51"/><path d="M-277,942L-253,1173L-69,1017Z" fill="#f86f6e" stroke="#f86f6e" stroke-width="1.51"/><path d="M-118,174L-299,285L-95,316Z" fill="#ff7b7a" stroke="#ff7b7a" stroke-width="1.51"/><path d="M-253,1173L-173,1276L-85,1142Z" fill="#fe8b87" stroke="#fe8b87" stroke-width="1.51"/><path d="M-285,1L-318,157L-118,174Z" fill="#ff8583" stroke="#ff8583" stroke-width="1.51"/><path d="M-299,285L-204,464L-95,316Z" fill="#ff7271" stroke="#ff7271" stroke-width="1.51"/><path d="M-318,157L-299,285L-118,174Z" fill="#ff7d7b" stroke="#ff7d7b" stroke-width="1.51"/><path d="M-204,464L-292,818L-116,665Z" fill="#f66866" stroke="#f66866" stroke-width="1.51"/><path d="M-284,-322L-285,1L-120,-194Z" fill="#ff8483" stroke="#ff8483" stroke-width="1.51"/><path d="M-299,285L-292,818L-204,464Z" fill="#fa6968" stroke="#fa6968" stroke-width="1.51"/><path d="M-277,942L-292,818L-253,1173Z" fill="#f76a69" stroke="#f76a69" stroke-width="1.51"/><path d="M-318,157L-285,1L-284,-322Z" fill="#ff8887" stroke="#ff8887" stroke-width="1.51"/><path d="M-299,285L-318,157L-292,818Z" fill="#fd6b6a" stroke="#fd6b6a" stroke-width="1.51"/></svg>